<svg width="58" height="14" viewBox="0 0 58 14" fill="none" xmlns="http://www.w3.org/2000/svg">
<path d="M9.36758 5.988C9.36758 6.73933 9.24858 7.423 9.01058 8.039C8.77258 8.655 8.43658 9.18233 8.00258 9.621C7.56858 10.0597 7.04591 10.4003 6.43458 10.643C5.82791 10.881 5.15591 11 4.41858 11H0.673578V0.968999H4.41858C5.15591 0.968999 5.82791 1.09033 6.43458 1.333C7.04591 1.571 7.56858 1.91167 8.00258 2.355C8.43658 2.79367 8.77258 3.321 9.01058 3.937C9.24858 4.553 9.36758 5.23667 9.36758 5.988ZM7.97458 5.988C7.97458 5.372 7.89058 4.82133 7.72258 4.336C7.55458 3.85067 7.31658 3.44 7.00858 3.104C6.70058 2.768 6.32725 2.51133 5.88858 2.334C5.44991 2.15667 4.95991 2.068 4.41858 2.068H2.03158V9.901H4.41858C4.95991 9.901 5.44991 9.81233 5.88858 9.635C6.32725 9.45767 6.70058 9.20333 7.00858 8.872C7.31658 8.536 7.55458 8.12533 7.72258 7.64C7.89058 7.15467 7.97458 6.604 7.97458 5.988ZM16.7516 3.909V11H16.0096C15.8323 11 15.7203 10.9137 15.6736 10.741L15.5756 9.978C15.2676 10.3187 14.9223 10.594 14.5396 10.804C14.1569 11.0093 13.7183 11.112 13.2236 11.112C12.8363 11.112 12.4933 11.049 12.1946 10.923C11.9006 10.7923 11.6533 10.6103 11.4526 10.377C11.2519 10.1437 11.1003 9.86133 10.9976 9.53C10.8996 9.19867 10.8506 8.83233 10.8506 8.431V3.909H12.0966V8.431C12.0966 8.96767 12.2179 9.383 12.4606 9.677C12.7079 9.971 13.0836 10.118 13.5876 10.118C13.9563 10.118 14.2993 10.0317 14.6166 9.859C14.9386 9.68167 15.2349 9.439 15.5056 9.131V3.909H16.7516ZM19.9802 9.292C20.2089 9.6 20.4586 9.817 20.7292 9.943C21.0046 10.069 21.3056 10.132 21.6322 10.132C22.2996 10.132 22.8106 9.89633 23.1652 9.425C23.5199 8.95367 23.6972 8.25133 23.6972 7.318C23.6972 6.45 23.5386 5.813 23.2212 5.407C22.9086 4.99633 22.4606 4.791 21.8772 4.791C21.4712 4.791 21.1166 4.88433 20.8132 5.071C20.5146 5.25767 20.2369 5.52133 19.9802 5.862V9.292ZM19.9802 4.931C20.2789 4.58567 20.6149 4.31033 20.9882 4.105C21.3662 3.89967 21.8002 3.797 22.2902 3.797C22.7056 3.797 23.0789 3.87633 23.4102 4.035C23.7462 4.19367 24.0309 4.42467 24.2642 4.728C24.4976 5.02667 24.6749 5.39067 24.7962 5.82C24.9222 6.24933 24.9852 6.73233 24.9852 7.269C24.9852 7.843 24.9152 8.36567 24.7752 8.837C24.6352 9.30833 24.4322 9.712 24.1662 10.048C23.9049 10.3793 23.5852 10.6383 23.2072 10.825C22.8292 11.007 22.4046 11.098 21.9332 11.098C21.4666 11.098 21.0722 11.0117 20.7502 10.839C20.4329 10.6617 20.1552 10.412 19.9172 10.09L19.8542 10.734C19.8169 10.9113 19.7096 11 19.5322 11H18.7272V0.689H19.9802V4.931ZM30.4233 0.268999H31.3963V13.443H30.4233V0.268999ZM43.224 9.859V11H37.533V0.968999H38.884V9.859H43.224ZM48.6705 6.681C48.6705 6.39167 48.6285 6.128 48.5445 5.89C48.4652 5.64733 48.3462 5.43967 48.1875 5.267C48.0335 5.08967 47.8445 4.95433 47.6205 4.861C47.3965 4.763 47.1422 4.714 46.8575 4.714C46.2602 4.714 45.7865 4.889 45.4365 5.239C45.0912 5.58433 44.8765 6.065 44.7925 6.681H48.6705ZM49.6785 10.006C49.5245 10.1927 49.3402 10.356 49.1255 10.496C48.9108 10.6313 48.6798 10.7433 48.4325 10.832C48.1898 10.9207 47.9378 10.986 47.6765 11.028C47.4152 11.0747 47.1562 11.098 46.8995 11.098C46.4095 11.098 45.9568 11.0163 45.5415 10.853C45.1308 10.685 44.7738 10.4423 44.4705 10.125C44.1718 9.803 43.9385 9.40633 43.7705 8.935C43.6025 8.46367 43.5185 7.92233 43.5185 7.311C43.5185 6.81633 43.5932 6.35433 43.7425 5.925C43.8965 5.49567 44.1158 5.12467 44.4005 4.812C44.6852 4.49467 45.0328 4.24733 45.4435 4.07C45.8542 3.888 46.3162 3.797 46.8295 3.797C47.2542 3.797 47.6462 3.86933 48.0055 4.014C48.3695 4.154 48.6822 4.35933 48.9435 4.63C49.2095 4.896 49.4172 5.22733 49.5665 5.624C49.7158 6.016 49.7905 6.464 49.7905 6.968C49.7905 7.164 49.7695 7.29467 49.7275 7.36C49.6855 7.42533 49.6062 7.458 49.4895 7.458H44.7505C44.7645 7.906 44.8252 8.29567 44.9325 8.627C45.0445 8.95833 45.1985 9.236 45.3945 9.46C45.5905 9.67933 45.8238 9.845 46.0945 9.957C46.3652 10.0643 46.6685 10.118 47.0045 10.118C47.3172 10.118 47.5855 10.083 47.8095 10.013C48.0382 9.93833 48.2342 9.859 48.3975 9.775C48.5608 9.691 48.6962 9.614 48.8035 9.544C48.9155 9.46933 49.0112 9.432 49.0905 9.432C49.1932 9.432 49.2725 9.47167 49.3285 9.551L49.6785 10.006ZM53.792 7.535C54.044 7.535 54.2657 7.5 54.457 7.43C54.6483 7.36 54.8093 7.262 54.94 7.136C55.0707 7.01 55.1687 6.86067 55.234 6.688C55.2993 6.51067 55.332 6.317 55.332 6.107C55.332 5.673 55.199 5.32767 54.933 5.071C54.6717 4.81433 54.2913 4.686 53.792 4.686C53.288 4.686 52.903 4.81433 52.637 5.071C52.3757 5.32767 52.245 5.673 52.245 6.107C52.245 6.317 52.2777 6.51067 52.343 6.688C52.413 6.86067 52.5133 7.01 52.644 7.136C52.7747 7.262 52.9357 7.36 53.127 7.43C53.3183 7.5 53.54 7.535 53.792 7.535ZM56.039 11.385C56.039 11.2123 55.99 11.0723 55.892 10.965C55.794 10.8577 55.661 10.7737 55.493 10.713C55.3297 10.6523 55.1383 10.6103 54.919 10.587C54.6997 10.559 54.4663 10.538 54.219 10.524C53.9763 10.51 53.729 10.496 53.477 10.482C53.225 10.468 52.9823 10.4447 52.749 10.412C52.4877 10.5333 52.273 10.6873 52.105 10.874C51.9417 11.056 51.86 11.2707 51.86 11.518C51.86 11.6767 51.8997 11.8237 51.979 11.959C52.063 12.099 52.189 12.218 52.357 12.316C52.525 12.4187 52.735 12.498 52.987 12.554C53.2437 12.6147 53.5447 12.645 53.89 12.645C54.226 12.645 54.527 12.6147 54.793 12.554C55.059 12.4933 55.283 12.407 55.465 12.295C55.6517 12.183 55.794 12.05 55.892 11.896C55.99 11.742 56.039 11.5717 56.039 11.385ZM57.306 4.189V4.651C57.306 4.805 57.208 4.903 57.012 4.945L56.207 5.05C56.3657 5.358 56.445 5.69867 56.445 6.072C56.445 6.41733 56.3773 6.73233 56.242 7.017C56.1113 7.297 55.9293 7.53733 55.696 7.738C55.4627 7.93867 55.1827 8.09267 54.856 8.2C54.5293 8.30733 54.1747 8.361 53.792 8.361C53.4607 8.361 53.148 8.32133 52.854 8.242C52.7047 8.33533 52.5903 8.43567 52.511 8.543C52.4317 8.64567 52.392 8.75067 52.392 8.858C52.392 9.026 52.4597 9.15433 52.595 9.243C52.735 9.327 52.917 9.38767 53.141 9.425C53.365 9.46233 53.6193 9.48567 53.904 9.495C54.1933 9.50433 54.4873 9.52067 54.786 9.544C55.0893 9.56267 55.3833 9.59767 55.668 9.649C55.9573 9.70033 56.214 9.78433 56.438 9.901C56.662 10.0177 56.8417 10.1787 56.977 10.384C57.117 10.5893 57.187 10.8553 57.187 11.182C57.187 11.4853 57.11 11.7793 56.956 12.064C56.8067 12.3487 56.5897 12.6007 56.305 12.82C56.0203 13.044 55.6703 13.2213 55.255 13.352C54.8443 13.4873 54.38 13.555 53.862 13.555C53.344 13.555 52.8913 13.5037 52.504 13.401C52.1167 13.2983 51.7947 13.1607 51.538 12.988C51.2813 12.8153 51.0877 12.6147 50.957 12.386C50.831 12.162 50.768 11.9263 50.768 11.679C50.768 11.329 50.8777 11.0327 51.097 10.79C51.3163 10.5473 51.6173 10.3537 52 10.209C51.79 10.1157 51.622 9.992 51.496 9.838C51.3747 9.67933 51.314 9.467 51.314 9.201C51.314 9.09833 51.3327 8.99333 51.37 8.886C51.4073 8.774 51.4633 8.66433 51.538 8.557C51.6173 8.445 51.713 8.34 51.825 8.242C51.937 8.144 52.0677 8.05767 52.217 7.983C51.867 7.787 51.594 7.528 51.398 7.206C51.202 6.87933 51.104 6.50133 51.104 6.072C51.104 5.72667 51.1693 5.414 51.3 5.134C51.4353 4.84933 51.622 4.609 51.86 4.413C52.098 4.21233 52.3803 4.05833 52.707 3.951C53.0383 3.84367 53.4 3.79 53.792 3.79C54.1 3.79 54.387 3.825 54.653 3.895C54.919 3.96033 55.1617 4.05833 55.381 4.189H57.306Z" fill="white"/>
</svg>
