<svg width="36" height="36" viewBox="0 0 36 36" fill="none" xmlns="http://www.w3.org/2000/svg">
<path d="M17.9823 35.5982C27.818 35.5982 35.7915 27.7246 35.7915 18.012C35.7915 8.29939 27.818 0.425781 17.9823 0.425781C8.14654 0.425781 0.173096 8.29939 0.173096 18.012C0.173096 27.7246 8.14654 35.5982 17.9823 35.5982Z" fill="#EF5350"/>
<path d="M23.3251 28.3878C19.882 25.574 16.0827 25.574 12.6396 28.3878C12.2241 28.7396 11.8679 28.1534 12.1647 27.6258C13.2333 25.6327 15.311 23.8154 17.9824 23.8154C20.6538 23.8154 22.7909 25.6327 23.8 27.6258C24.0969 28.0947 23.7407 28.6809 23.3251 28.3878Z" fill="#302424"/>
<path d="M5.04096 13.8496C4.1505 16.6048 5.39715 19.7117 8.18725 20.9427C10.918 22.2324 14.1237 21.2358 15.7265 18.7737L11.6304 14.26L5.04096 13.8496Z" fill="white"/>
<path d="M7.41543 14.378C6.58433 16.078 7.35606 18.1298 9.07762 18.8918C10.7992 19.7125 12.8769 18.9505 13.6486 17.2505C14.2423 16.1367 7.9497 13.2642 7.41543 14.378Z" fill="#302424"/>
<path d="M5.04102 13.85C5.99084 13.2638 7.11875 12.9707 8.24667 12.9707C9.37459 12.9707 10.5025 13.2638 11.5711 13.7328C12.5802 14.2017 13.5301 14.9052 14.3018 15.7259C15.0142 16.6052 15.6078 17.6017 15.7265 18.7155C14.9548 17.9535 14.1831 17.3086 13.352 16.7224C12.5209 16.1362 11.6898 15.6673 10.8587 15.3155C9.96822 14.9052 9.07776 14.6121 8.12794 14.319C7.05939 14.1431 6.10957 13.9673 5.04102 13.85Z" fill="#302424"/>
<path d="M30.9238 13.8496C31.8143 16.6048 30.5676 19.7117 27.7775 20.9427C25.0468 22.2324 21.8411 21.2358 20.2383 18.7737L24.3344 14.26L30.9238 13.8496Z" fill="white"/>
<path d="M28.549 14.378C29.3801 16.078 28.6084 18.1298 26.8869 18.8918C25.1653 19.7125 23.0876 18.9505 22.3158 17.2505C21.7222 16.1367 28.0148 13.2642 28.549 14.378Z" fill="#302424"/>
<path d="M30.9238 13.85C29.974 13.2638 28.8461 12.9707 27.7181 12.9707C26.5902 12.9707 25.4623 13.2638 24.3938 13.7328C23.3846 14.2017 22.4347 14.9052 21.663 15.7259C20.9506 16.6052 20.357 17.6017 20.2383 18.7155C21.01 17.9535 21.7817 17.3086 22.6128 16.7224C23.4439 16.1362 24.275 15.6673 25.1061 15.3155C25.9966 14.9052 26.887 14.6121 27.8369 14.319C28.9054 14.1431 29.8552 13.9673 30.9238 13.85Z" fill="#302424"/>
</svg>
