<svg width="22" height="22" viewBox="0 0 22 22" fill="none" xmlns="http://www.w3.org/2000/svg">
<path d="M13.1667 14.25V16.4167C13.1667 16.704 13.0525 16.9795 12.8494 17.1827C12.6462 17.3859 12.3707 17.5 12.0833 17.5H4.5L1.25 20.75V9.91667C1.25 9.62935 1.36414 9.3538 1.5673 9.15063C1.77047 8.94747 2.04602 8.83333 2.33333 8.83333H4.5M20.75 13.1667L17.5 9.91667H9.91667C9.62935 9.91667 9.3538 9.80253 9.15063 9.59937C8.94747 9.3962 8.83333 9.12065 8.83333 8.83333V2.33333C8.83333 2.04602 8.94747 1.77047 9.15063 1.5673C9.3538 1.36414 9.62935 1.25 9.91667 1.25H19.6667C19.954 1.25 20.2295 1.36414 20.4327 1.5673C20.6359 1.77047 20.75 2.04602 20.75 2.33333V13.1667Z" stroke="white" stroke-width="2" stroke-linecap="round" stroke-linejoin="round"/>
</svg>
