<svg width="21" height="22" viewBox="0 0 21 22" fill="none" xmlns="http://www.w3.org/2000/svg">
<path d="M12.45 14.25V16.4167C12.45 16.704 12.3473 16.9795 12.1644 17.1827C11.9816 17.3859 11.7336 17.5 11.475 17.5H4.65001L1.72501 20.75V9.91667C1.72501 9.62935 1.82773 9.3538 2.01058 9.15063C2.19342 8.94747 2.44142 8.83333 2.70001 8.83333H4.65001M19.275 13.1667L16.35 9.91667H9.52501C9.26642 9.91667 9.01842 9.80253 8.83558 9.59937C8.65273 9.3962 8.55001 9.12065 8.55001 8.83333V2.33333C8.55001 2.04602 8.65273 1.77047 8.83558 1.5673C9.01842 1.36414 9.26642 1.25 9.52501 1.25H18.3C18.5586 1.25 18.8066 1.36414 18.9894 1.5673C19.1723 1.77047 19.275 2.04602 19.275 2.33333V13.1667Z" stroke="white" stroke-width="2" stroke-linecap="round" stroke-linejoin="round"/>
</svg>
