<svg width="37" height="37" viewBox="0 0 37 37" fill="none" xmlns="http://www.w3.org/2000/svg">
<path d="M9.88339 35.741C13.9816 35.741 17.3039 35.3474 17.3039 34.8617C17.3039 34.3761 13.9816 33.9824 9.88339 33.9824C5.78516 33.9824 2.46289 34.3761 2.46289 34.8617C2.46289 35.3474 5.78516 35.741 9.88339 35.741Z" fill="#65B1EF"/>
<path d="M25.615 36.0928C31.5164 36.0928 36.3005 35.6203 36.3005 35.0376C36.3005 34.4548 31.5164 33.9824 25.615 33.9824C19.7135 33.9824 14.9294 34.4548 14.9294 35.0376C14.9294 35.6203 19.7135 36.0928 25.615 36.0928Z" fill="#65B1EF"/>
<path d="M18.4911 36.0923C28.3268 36.0923 36.3003 28.2187 36.3003 18.5061C36.3003 8.79353 28.3268 0.919922 18.4911 0.919922C8.65533 0.919922 0.681885 8.79353 0.681885 18.5061C0.681885 28.2187 8.65533 36.0923 18.4911 36.0923Z" fill="#FFDD67"/>
<path d="M26.0303 26.7126C25.1992 24.6022 23.1808 23.1953 18.4911 23.1953C13.7419 23.1953 11.7829 24.6022 10.9518 26.7126C10.5363 27.8263 11.1299 29.6436 11.1299 29.6436C11.9017 31.9298 11.7829 32.5746 18.4911 32.5746C25.1992 32.5746 25.0805 31.9298 25.8522 29.6436C25.8522 29.6436 26.5052 27.8263 26.0303 26.7126Z" fill="#664E27"/>
<path d="M23.8339 26.1268C23.8933 25.9509 23.8339 25.7751 23.7152 25.6578C23.7152 25.6578 22.5279 24.3682 18.4912 24.3682C14.4544 24.3682 13.2672 25.6578 13.2672 25.6578C13.1484 25.7164 13.1484 25.9509 13.1484 26.1268L13.2672 26.4785C13.3265 26.6544 13.4453 26.7716 13.564 26.7716H23.4184C23.5371 26.7716 23.7152 26.6544 23.7152 26.4785L23.8339 26.1268Z" fill="white"/>
<path d="M25.9117 35.2131H29.9484C34.8163 29.4097 29.058 23.489 30.4827 17.7441C29.1173 17.7441 27.752 19.2097 26.446 19.2097C24.5463 24.7786 30.7795 29.4097 25.9117 35.2131ZM11.0707 35.2131H7.03394C2.16609 29.4097 7.9244 23.489 6.49966 17.7441C7.86503 17.7441 9.2304 19.2097 10.5364 19.2097C12.4361 24.7786 6.20284 29.4097 11.0707 35.2131Z" fill="#65B1EF"/>
<path d="M23.6558 10.4752C25.4368 12.2338 27.93 13.1131 30.4233 12.8786C30.7795 12.82 30.9576 14.1097 30.5421 14.1683C27.6332 14.4028 24.7838 13.4062 22.7654 11.3545C22.4092 11.0614 23.4184 10.2407 23.6558 10.4752ZM6.61838 12.8786C9.11167 13.1131 11.605 12.2338 13.3859 10.4752C13.6233 10.2407 14.6325 11.0614 14.3357 11.3545C12.3173 13.4062 9.40849 14.4028 6.55902 14.1683C6.02474 14.1683 6.2622 12.8786 6.61838 12.8786Z" fill="#917524"/>
<path d="M20.8065 17.51C23.2998 22.1997 28.3457 22.1997 30.839 17.51C30.9577 17.2756 30.6609 17.1583 30.2453 16.9238C27.752 18.8583 23.6559 18.6824 21.4001 16.9238C21.0439 17.1583 20.6877 17.2756 20.8065 17.51ZM6.14357 17.51C8.63685 22.1997 13.6828 22.1997 16.1761 17.51C16.2948 17.2756 15.998 17.1583 15.5824 16.9238C13.0892 18.8583 8.99304 18.6824 6.73721 16.9238C6.32166 17.1583 6.02484 17.2756 6.14357 17.51Z" fill="#664E27"/>
</svg>
