<svg width="9" height="9" viewBox="0 0 9 9" fill="none" xmlns="http://www.w3.org/2000/svg">
<path d="M7.36364 5.4H9V0H7.36364M5.72727 0H2.04545C1.70591 0 1.41545 0.225 1.29273 0.549L0.0572727 3.7215C0.0204545 3.825 0 3.933 0 4.05V4.95C0 5.18869 0.0862011 5.41761 0.23964 5.5864C0.393079 5.75518 0.601187 5.85 0.818182 5.85H3.39955L3.01091 7.9065C3.00273 7.9515 2.99864 7.9965 2.99864 8.046C2.99864 8.235 3.06818 8.4015 3.17864 8.523L3.61227 9L6.30409 6.0345C6.45545 5.8725 6.54545 5.6475 6.54545 5.4V0.9C6.54545 0.661305 6.45925 0.432387 6.30581 0.263604C6.15238 0.0948211 5.94427 0 5.72727 0Z" fill="#A2A2A2"/>
</svg>
