<svg width="36" height="39" viewBox="0 0 36 39" fill="none" xmlns="http://www.w3.org/2000/svg">
<path d="M0.197754 18.012C0.197754 27.7472 8.14828 35.5982 18.0069 35.5982C27.8656 35.5982 35.8161 27.7472 35.8161 18.012C35.8161 8.27677 27.8656 0.425781 18.0069 0.425781C8.14828 0.425781 0.197754 8.27677 0.197754 18.012Z" fill="#FFDD67"/>
<path d="M6.6855 6.70679C8.84804 5.45063 11.4558 5.2622 13.8728 6.07871C14.1908 6.20432 14.6996 5.01097 14.318 4.88536C11.583 3.88043 8.59363 4.13166 6.04946 5.57624C5.66783 5.76467 6.36748 6.89521 6.6855 6.70679ZM21.9505 8.59102C24.1131 7.33486 26.7208 7.14644 29.1378 7.96294C29.4558 8.08856 29.9647 6.89521 29.583 6.76959C26.848 5.76467 23.8586 6.0159 21.3145 7.46048C20.9328 7.6489 21.6325 8.71664 21.9505 8.59102Z" fill="#917524"/>
<path d="M12.9824 20.9641C16.2263 20.1476 19.7881 20.7128 22.5231 22.5971C23.2227 23.0367 21.9506 24.7954 21.251 24.2929C19.4065 23.0995 16.5443 22.2202 13.5549 22.9739C12.7916 23.1624 12.1556 21.2153 12.9824 20.9641Z" fill="#664E27"/>
<path d="M24.8763 17.4463C22.2685 17.4463 20.106 15.3109 20.106 12.7357C20.106 11.668 20.4876 10.6631 21.06 9.90938C22.1413 9.59534 23.3498 9.46973 24.6219 9.46973C26.1484 9.46973 27.6113 9.72096 28.8833 10.1606C29.3922 10.9143 29.7102 11.7936 29.7102 12.7985C29.6466 15.3737 27.5477 17.4463 24.8763 17.4463Z" fill="white"/>
<path d="M25.5123 9.46973C25.7668 9.84657 25.9576 10.2862 25.9576 10.7887C25.9576 12.1077 24.8763 13.1754 23.5406 13.1754C22.2049 13.1754 21.1873 12.1077 21.1873 10.8515C21.1873 10.4747 21.2509 10.1606 21.4417 9.84657C22.3957 9.59534 23.477 9.46973 24.6219 9.46973H25.5123Z" fill="#664E27"/>
<path d="M11.1378 17.4463C8.52998 17.4463 6.36743 15.3109 6.36743 12.7357C6.36743 11.668 6.74906 10.6631 7.3215 9.90938C8.40277 9.59534 9.61125 9.46973 10.8833 9.46973C12.4098 9.46973 13.8727 9.72096 15.1448 10.1606C15.6537 10.9143 15.9717 11.7936 15.9717 12.7985C15.9081 15.3737 13.7455 17.4463 11.1378 17.4463Z" fill="white"/>
<path d="M11.7739 9.47003C12.0284 9.84688 12.2192 10.2865 12.2192 10.789C12.2192 12.108 11.1379 13.1757 9.80222 13.1757C8.46653 13.1757 7.38525 12.108 7.38525 10.789C7.38525 10.4122 7.44886 10.0981 7.63967 9.78407C8.59373 9.53284 9.67501 9.40723 10.8199 9.40723C11.2015 9.47003 11.4559 9.47003 11.7739 9.47003Z" fill="#664E27"/>
<path d="M18.3886 26.8046C15.7172 27.4327 8.91157 28.2492 7.70309 26.993C7.13065 26.4278 7.25786 25.6112 7.44867 24.1667C7.63948 22.7221 6.24019 21.2147 5.22252 21.0891C4.01404 20.9635 3.3144 21.8428 3.75963 23.0989C4.65009 25.9253 2.86917 26.8046 2.74196 28.8773C2.67835 30.0706 2.29673 32.0805 4.14125 34.6556C6.24019 37.5447 9.86563 37.6076 11.1377 37.5447C12.6006 37.4819 13.2367 37.4191 13.5547 36.7911C13.9363 36.0374 13.7455 35.8489 13.9363 35.5977C14.2543 35.0324 14.4451 35.0952 14.636 34.4044C14.8268 33.7135 14.3179 33.2738 14.4451 32.9598C14.6996 32.2061 15.3356 32.3317 14.6996 30.5731C16.8621 30.259 18.2614 29.945 19.5335 29.1913C21.8868 27.9351 19.8515 26.4906 18.3886 26.8046Z" fill="white"/>
<path d="M8.78454 37.922C6.62199 37.5452 4.84107 36.4774 3.6962 34.9072C1.91528 32.4577 2.04249 30.5107 2.16969 29.1917V28.752C2.2333 27.8727 2.48772 27.1819 2.80574 26.491C3.25097 25.486 3.63259 24.6695 3.12376 23.1621C2.86934 22.4085 2.93295 21.6548 3.44178 21.1523C3.88701 20.7126 4.52305 20.4614 5.2863 20.587H5.34991C6.6856 20.8383 8.2121 22.5969 8.02128 24.2927C7.83047 25.6745 7.76687 26.3025 8.14849 26.6794C8.2121 26.7422 8.40291 26.9306 9.10256 26.9934C11.5195 27.4331 16.2898 26.7422 18.2616 26.3025C18.5796 26.2397 18.9612 26.2397 19.3428 26.3025C20.2969 26.491 20.9966 27.0562 21.1874 27.7471C21.251 28.1868 21.251 29.0033 19.9153 29.757C18.6432 30.4479 17.3075 30.8247 15.463 31.0759C15.9718 32.3321 14.7633 32.7718 15.0178 33.2742C15.3358 33.9651 15.2722 34.5304 14.5725 35.2213C14.0637 35.6609 14.6997 36.2262 14.1909 37.1055C13.6185 38.0476 12.6644 38.1104 11.2651 38.1732C10.311 38.1104 9.54779 38.1104 8.78454 37.922ZM3.95061 22.5341C4.39584 24.6067 4.52305 25.3604 3.7598 27.0562C2.61492 29.3173 2.16969 35.7237 8.97535 36.9171C13.1096 37.6708 13.7457 36.6658 13.5549 35.5981C13.4276 34.9072 14.0001 34.656 14.1909 34.4048C14.6361 33.6511 14.0001 33.2742 14.0001 32.9602C14.0001 32.3949 14.5725 32.3949 14.6997 31.8296C14.8905 30.8247 13.6185 30.4479 14.6997 30.3851C16.7987 30.2594 18.198 29.8826 19.4064 29.0661C20.5513 28.3124 19.7245 26.7422 18.198 27.0562C14.6361 27.8099 9.29337 28.6892 7.51245 27.0562C6.6856 26.3025 7.32164 25.4232 7.25803 23.7274C7.13083 21.4663 3.50538 20.587 3.95061 22.5341Z" fill="#CCCFD4"/>
</svg>
