<svg width="37" height="37" viewBox="0 0 37 37" fill="none" xmlns="http://www.w3.org/2000/svg">
<path d="M36.3039 18.4827C36.3039 28.2137 28.3491 36.0689 18.4947 36.0689C8.64032 36.0689 0.685547 28.2137 0.685547 18.4827C0.685547 8.75166 8.64032 0.896484 18.4947 0.896484C28.3491 0.896484 36.3039 8.75166 36.3039 18.4827Z" fill="#FFDD67"/>
<path d="M28.5866 21.9999C28.5866 21.531 28.2898 20.9448 27.518 20.7689C25.4403 20.3586 22.4127 20.0068 18.4947 20.0068C14.5767 20.0068 11.5491 20.4172 9.47138 20.7689C8.69965 20.9448 8.40283 21.531 8.40283 21.9999C8.40283 26.2793 11.7272 30.5586 18.4947 30.5586C25.2622 30.5586 28.5866 26.2793 28.5866 21.9999Z" fill="#664E27"/>
<path d="M16.4169 15.4933C15.289 12.5036 13.6268 10.9795 11.9646 10.9795C10.3024 10.9795 8.64023 12.5036 7.51231 15.4933C7.39358 15.7864 7.98722 16.314 8.28404 16.0209C9.35259 14.9071 10.6586 14.4381 11.9646 14.4381C13.2706 14.4381 14.5766 14.9071 15.6452 16.0209C16.0014 16.314 16.5356 15.7864 16.4169 15.4933Z" fill="#664E27"/>
<path d="M29.4176 15.4933C28.2897 12.5036 26.6275 10.9795 24.9653 10.9795C23.3031 10.9795 21.641 12.5036 20.513 15.4933C20.3943 15.7864 20.988 16.314 21.2848 16.0209C22.3533 14.9071 23.6593 14.4381 24.9653 14.4381C26.3307 14.4381 27.5774 14.9071 28.6459 16.0209C28.9427 16.314 29.5364 15.7864 29.4176 15.4933Z" fill="#664E27"/>
<path d="M26.034 22.1761C24.728 21.9416 21.9973 21.5898 18.4948 21.5898C14.9923 21.5898 12.2616 21.9416 10.9556 22.1761C10.1838 22.2933 10.1245 22.5864 10.1838 23.0554C10.2432 23.2898 10.2432 23.6416 10.3619 23.9933C10.4213 24.345 10.54 24.5209 11.1336 24.4623C12.2616 24.345 24.7874 24.345 25.9153 24.4623C26.5089 24.5209 26.5683 24.345 26.687 23.9933C26.7464 23.6416 26.8057 23.3485 26.8651 23.0554C26.8651 22.5864 26.8057 22.2933 26.034 22.1761Z" fill="white"/>
<path d="M36.3039 18.4827C36.3039 28.2137 28.3491 36.0689 18.4947 36.0689C8.64032 36.0689 0.685547 28.2137 0.685547 18.4827C0.685547 8.75166 8.64032 0.896484 18.4947 0.896484C28.3491 0.896484 36.3039 8.75166 36.3039 18.4827Z" fill="#FFDD67"/>
<path d="M28.5866 21.9999C28.5866 21.531 28.2898 20.9448 27.518 20.7689C25.4403 20.3586 22.4127 20.0068 18.4947 20.0068C14.5767 20.0068 11.5491 20.4172 9.47138 20.7689C8.69965 20.9448 8.40283 21.531 8.40283 21.9999C8.40283 26.2793 11.7272 30.5586 18.4947 30.5586C25.2622 30.5586 28.5866 26.2793 28.5866 21.9999Z" fill="#664E27"/>
<path d="M16.4169 15.4933C15.289 12.5036 13.6268 10.9795 11.9646 10.9795C10.3024 10.9795 8.64023 12.5036 7.51231 15.4933C7.39358 15.7864 7.98722 16.314 8.28404 16.0209C9.35259 14.9071 10.6586 14.4381 11.9646 14.4381C13.2706 14.4381 14.5766 14.9071 15.6452 16.0209C16.0014 16.314 16.5356 15.7864 16.4169 15.4933Z" fill="#664E27"/>
<path d="M29.4176 15.4933C28.2897 12.5036 26.6275 10.9795 24.9653 10.9795C23.3031 10.9795 21.641 12.5036 20.513 15.4933C20.3943 15.7864 20.988 16.314 21.2848 16.0209C22.3533 14.9071 23.6593 14.4381 24.9653 14.4381C26.3307 14.4381 27.5774 14.9071 28.6459 16.0209C28.9427 16.314 29.5364 15.7864 29.4176 15.4933Z" fill="#664E27"/>
<path d="M26.034 22.1761C24.728 21.9416 21.9973 21.5898 18.4948 21.5898C14.9923 21.5898 12.2616 21.9416 10.9556 22.1761C10.1838 22.2933 10.1245 22.5864 10.1838 23.0554C10.2432 23.2898 10.2432 23.6416 10.3619 23.9933C10.4213 24.345 10.54 24.4623 11.1336 24.4623H25.9153C26.5089 24.4623 26.5683 24.345 26.687 23.9933C26.7464 23.6416 26.8057 23.3485 26.8651 23.0554C26.8651 22.5864 26.8057 22.2933 26.034 22.1761Z" fill="white"/>
</svg>
