<svg width="9" height="9" viewBox="0 0 9 9" fill="none" xmlns="http://www.w3.org/2000/svg">
<path d="M9 4.05C9 3.81131 8.9138 3.58239 8.76036 3.4136C8.60692 3.24482 8.39881 3.15 8.18182 3.15H5.59636L5.98909 1.0935C5.99727 1.0485 6.00136 0.999 6.00136 0.9495C6.00136 0.765 5.93182 0.594 5.82136 0.4725L5.38773 0L2.69591 2.961C2.54455 3.1275 2.45455 3.3525 2.45455 3.6V8.1C2.45455 8.33869 2.54075 8.56761 2.69419 8.7364C2.84762 8.90518 3.05573 9 3.27273 9H6.95455C7.29409 9 7.58455 8.775 7.70727 8.451L8.94273 5.2785C8.97955 5.175 9 5.067 9 4.95V4.05ZM0 9H1.63636V3.6H0V9Z" fill="#A2A2A2"/>
</svg>
