<svg width="415" height="83" viewBox="0 0 415 83" fill="none" xmlns="http://www.w3.org/2000/svg">
<path d="M52.1966 65.9901V63.4545H64.1426V65.9901H59.6895V78H56.6497V65.9901H52.1966ZM71.5645 73.3551V67.0909H74.59V78H71.6852V76.0185H71.5716C71.3253 76.6577 70.9158 77.1714 70.3429 77.5597C69.7747 77.9479 69.081 78.142 68.2619 78.142C67.5327 78.142 66.8912 77.9763 66.3372 77.6449C65.7832 77.3134 65.35 76.8423 65.0375 76.2315C64.7297 75.6207 64.5734 74.8892 64.5687 74.0369V67.0909H67.5943V73.4972C67.599 74.1411 67.7718 74.6501 68.1127 75.0241C68.4537 75.3982 68.9106 75.5852 69.4835 75.5852C69.8481 75.5852 70.189 75.5024 70.5062 75.3366C70.8234 75.1662 71.0791 74.9152 71.2733 74.5838C71.4721 74.2524 71.5692 73.8428 71.5645 73.3551ZM81.03 78.1776C80.2014 78.1776 79.4509 77.9645 78.7786 77.5384C78.111 77.1075 77.5807 76.4754 77.1877 75.642C76.7994 74.804 76.6053 73.7765 76.6053 72.5597C76.6053 71.3097 76.8065 70.2704 77.209 69.4418C77.6114 68.6084 78.1465 67.9858 78.8141 67.5739C79.4864 67.1572 80.2227 66.9489 81.0229 66.9489C81.6337 66.9489 82.1427 67.053 82.5499 67.2614C82.9618 67.465 83.2933 67.7206 83.5442 68.0284C83.7999 68.3314 83.994 68.6297 84.1266 68.9233H84.2189V63.4545H87.2374V78H84.2544V76.2528H84.1266C83.9846 76.5559 83.7833 76.8565 83.5229 77.1548C83.2672 77.4484 82.9334 77.6922 82.5215 77.8864C82.1143 78.0805 81.6171 78.1776 81.03 78.1776ZM81.9888 75.7699C82.4765 75.7699 82.8884 75.6373 83.2246 75.3722C83.5655 75.1023 83.8259 74.7259 84.0059 74.2429C84.1905 73.7599 84.2828 73.1941 84.2828 72.5455C84.2828 71.8968 84.1929 71.3333 84.013 70.8551C83.833 70.3769 83.5726 70.0076 83.2317 69.7472C82.8908 69.4867 82.4765 69.3565 81.9888 69.3565C81.4917 69.3565 81.0726 69.4915 80.7317 69.7614C80.3908 70.0312 80.1328 70.4053 79.9576 70.8835C79.7824 71.3617 79.6948 71.9157 79.6948 72.5455C79.6948 73.1799 79.7824 73.741 79.9576 74.2287C80.1375 74.7116 80.3955 75.0904 80.7317 75.3651C81.0726 75.6349 81.4917 75.7699 81.9888 75.7699ZM94.6539 78.2131C93.5507 78.2131 92.5967 77.9787 91.7917 77.5099C90.9915 77.0365 90.3736 76.3783 89.938 75.5355C89.5024 74.688 89.2846 73.7055 89.2846 72.5881C89.2846 71.4612 89.5024 70.4763 89.938 69.6335C90.3736 68.786 90.9915 68.1278 91.7917 67.6591C92.5967 67.1856 93.5507 66.9489 94.6539 66.9489C95.7572 66.9489 96.7089 67.1856 97.5091 67.6591C98.314 68.1278 98.9342 68.786 99.3699 69.6335C99.8055 70.4763 100.023 71.4612 100.023 72.5881C100.023 73.7055 99.8055 74.688 99.3699 75.5355C98.9342 76.3783 98.314 77.0365 97.5091 77.5099C96.7089 77.9787 95.7572 78.2131 94.6539 78.2131ZM94.6681 75.8693C95.17 75.8693 95.5891 75.7273 95.9252 75.4432C96.2614 75.1544 96.5147 74.7614 96.6852 74.2642C96.8604 73.767 96.948 73.2012 96.948 72.5668C96.948 71.9323 96.8604 71.3665 96.6852 70.8693C96.5147 70.3722 96.2614 69.9792 95.9252 69.6903C95.5891 69.4015 95.17 69.2571 94.6681 69.2571C94.1615 69.2571 93.7354 69.4015 93.3897 69.6903C93.0488 69.9792 92.7908 70.3722 92.6156 70.8693C92.4451 71.3665 92.3599 71.9323 92.3599 72.5668C92.3599 73.2012 92.4451 73.767 92.6156 74.2642C92.7908 74.7614 93.0488 75.1544 93.3897 75.4432C93.7354 75.7273 94.1615 75.8693 94.6681 75.8693ZM106.619 82.0909V67.0909H109.602V68.9233H109.737C109.87 68.6297 110.062 68.3314 110.313 68.0284C110.568 67.7206 110.9 67.465 111.307 67.2614C111.719 67.053 112.23 66.9489 112.841 66.9489C113.637 66.9489 114.37 67.1572 115.043 67.5739C115.715 67.9858 116.253 68.6084 116.655 69.4418C117.057 70.2704 117.259 71.3097 117.259 72.5597C117.259 73.7765 117.062 74.804 116.669 75.642C116.281 76.4754 115.751 77.1075 115.078 77.5384C114.411 77.9645 113.663 78.1776 112.834 78.1776C112.247 78.1776 111.747 78.0805 111.335 77.8864C110.928 77.6922 110.594 77.4484 110.334 77.1548C110.074 76.8565 109.875 76.5559 109.737 76.2528H109.645V82.0909H106.619ZM109.581 72.5455C109.581 73.1941 109.671 73.7599 109.851 74.2429C110.031 74.7259 110.291 75.1023 110.632 75.3722C110.973 75.6373 111.387 75.7699 111.875 75.7699C112.368 75.7699 112.784 75.6349 113.125 75.3651C113.466 75.0904 113.724 74.7116 113.899 74.2287C114.079 73.741 114.169 73.1799 114.169 72.5455C114.169 71.9157 114.082 71.3617 113.906 70.8835C113.731 70.4053 113.473 70.0312 113.132 69.7614C112.791 69.4915 112.372 69.3565 111.875 69.3565C111.383 69.3565 110.966 69.4867 110.625 69.7472C110.289 70.0076 110.031 70.3769 109.851 70.8551C109.671 71.3333 109.581 71.8968 109.581 72.5455ZM119.276 78V67.0909H122.209V68.9943H122.323C122.521 68.3172 122.855 67.8059 123.324 67.4602C123.793 67.1098 124.333 66.9347 124.943 66.9347C125.095 66.9347 125.258 66.9441 125.433 66.9631C125.609 66.982 125.762 67.008 125.895 67.0412V69.7259C125.753 69.6832 125.557 69.6454 125.306 69.6122C125.055 69.5791 124.825 69.5625 124.617 69.5625C124.172 69.5625 123.774 69.6596 123.423 69.8537C123.078 70.0431 122.803 70.3082 122.6 70.6491C122.401 70.9901 122.301 71.383 122.301 71.8281V78H119.276ZM131.881 78.2131C130.777 78.2131 129.823 77.9787 129.018 77.5099C128.218 77.0365 127.6 76.3783 127.165 75.5355C126.729 74.688 126.511 73.7055 126.511 72.5881C126.511 71.4612 126.729 70.4763 127.165 69.6335C127.6 68.786 128.218 68.1278 129.018 67.6591C129.823 67.1856 130.777 66.9489 131.881 66.9489C132.984 66.9489 133.935 67.1856 134.736 67.6591C135.541 68.1278 136.161 68.786 136.596 69.6335C137.032 70.4763 137.25 71.4612 137.25 72.5881C137.25 73.7055 137.032 74.688 136.596 75.5355C136.161 76.3783 135.541 77.0365 134.736 77.5099C133.935 77.9787 132.984 78.2131 131.881 78.2131ZM131.895 75.8693C132.397 75.8693 132.816 75.7273 133.152 75.4432C133.488 75.1544 133.741 74.7614 133.912 74.2642C134.087 73.767 134.175 73.2012 134.175 72.5668C134.175 71.9323 134.087 71.3665 133.912 70.8693C133.741 70.3722 133.488 69.9792 133.152 69.6903C132.816 69.4015 132.397 69.2571 131.895 69.2571C131.388 69.2571 130.962 69.4015 130.616 69.6903C130.275 69.9792 130.017 70.3722 129.842 70.8693C129.672 71.3665 129.586 71.9323 129.586 72.5668C129.586 73.2012 129.672 73.767 129.842 74.2642C130.017 74.7614 130.275 75.1544 130.616 75.4432C130.962 75.7273 131.388 75.8693 131.895 75.8693ZM142.243 71.6932V78H139.217V67.0909H142.101V69.0156H142.229C142.47 68.3812 142.875 67.8793 143.443 67.5099C144.011 67.1359 144.7 66.9489 145.51 66.9489C146.267 66.9489 146.928 67.1146 147.491 67.446C148.055 67.7775 148.493 68.2509 148.805 68.8665C149.118 69.4773 149.274 70.2064 149.274 71.054V78H146.248V71.5938C146.253 70.9261 146.083 70.4053 145.737 70.0312C145.391 69.6525 144.916 69.4631 144.309 69.4631C143.902 69.4631 143.542 69.5507 143.23 69.7259C142.922 69.901 142.681 70.1567 142.506 70.4929C142.335 70.8243 142.247 71.2244 142.243 71.6932ZM157.461 67.0909V69.3636H150.892V67.0909H157.461ZM152.383 64.4773H155.409V74.6477C155.409 74.9271 155.451 75.1449 155.536 75.3011C155.622 75.4527 155.74 75.5592 155.892 75.6207C156.048 75.6823 156.228 75.7131 156.431 75.7131C156.573 75.7131 156.715 75.7012 156.857 75.6776C156.999 75.6491 157.108 75.6278 157.184 75.6136L157.66 77.8651C157.508 77.9124 157.295 77.9669 157.021 78.0284C156.746 78.0947 156.412 78.1349 156.019 78.1491C155.29 78.1776 154.651 78.0805 154.102 77.858C153.557 77.6354 153.133 77.2898 152.83 76.821C152.527 76.3523 152.378 75.7604 152.383 75.0455V64.4773ZM164.244 78.2131C163.141 78.2131 162.186 77.9787 161.382 77.5099C160.581 77.0365 159.963 76.3783 159.528 75.5355C159.092 74.688 158.874 73.7055 158.874 72.5881C158.874 71.4612 159.092 70.4763 159.528 69.6335C159.963 68.786 160.581 68.1278 161.382 67.6591C162.186 67.1856 163.141 66.9489 164.244 66.9489C165.347 66.9489 166.299 67.1856 167.099 67.6591C167.904 68.1278 168.524 68.786 168.96 69.6335C169.395 70.4763 169.613 71.4612 169.613 72.5881C169.613 73.7055 169.395 74.688 168.96 75.5355C168.524 76.3783 167.904 77.0365 167.099 77.5099C166.299 77.9787 165.347 78.2131 164.244 78.2131ZM164.258 75.8693C164.76 75.8693 165.179 75.7273 165.515 75.4432C165.851 75.1544 166.105 74.7614 166.275 74.2642C166.45 73.767 166.538 73.2012 166.538 72.5668C166.538 71.9323 166.45 71.3665 166.275 70.8693C166.105 70.3722 165.851 69.9792 165.515 69.6903C165.179 69.4015 164.76 69.2571 164.258 69.2571C163.751 69.2571 163.325 69.4015 162.98 69.6903C162.639 69.9792 162.381 70.3722 162.205 70.8693C162.035 71.3665 161.95 71.9323 161.95 72.5668C161.95 73.2012 162.035 73.767 162.205 74.2642C162.381 74.7614 162.639 75.1544 162.98 75.4432C163.325 75.7273 163.751 75.8693 164.258 75.8693ZM176.209 82.0909V67.0909H179.192V68.9233H179.327C179.46 68.6297 179.652 68.3314 179.903 68.0284C180.158 67.7206 180.49 67.465 180.897 67.2614C181.309 67.053 181.82 66.9489 182.431 66.9489C183.226 66.9489 183.96 67.1572 184.633 67.5739C185.305 67.9858 185.842 68.6084 186.245 69.4418C186.647 70.2704 186.849 71.3097 186.849 72.5597C186.849 73.7765 186.652 74.804 186.259 75.642C185.871 76.4754 185.34 77.1075 184.668 77.5384C184.001 77.9645 183.252 78.1776 182.424 78.1776C181.837 78.1776 181.337 78.0805 180.925 77.8864C180.518 77.6922 180.184 77.4484 179.924 77.1548C179.663 76.8565 179.465 76.5559 179.327 76.2528H179.235V82.0909H176.209ZM179.171 72.5455C179.171 73.1941 179.261 73.7599 179.441 74.2429C179.621 74.7259 179.881 75.1023 180.222 75.3722C180.563 75.6373 180.977 75.7699 181.465 75.7699C181.957 75.7699 182.374 75.6349 182.715 75.3651C183.056 75.0904 183.314 74.7116 183.489 74.2287C183.669 73.741 183.759 73.1799 183.759 72.5455C183.759 71.9157 183.671 71.3617 183.496 70.8835C183.321 70.4053 183.063 70.0312 182.722 69.7614C182.381 69.4915 181.962 69.3565 181.465 69.3565C180.973 69.3565 180.556 69.4867 180.215 69.7472C179.879 70.0076 179.621 70.3769 179.441 70.8551C179.261 71.3333 179.171 71.8968 179.171 72.5455ZM191.976 78.206C191.28 78.206 190.66 78.0852 190.116 77.8438C189.571 77.5975 189.14 77.2353 188.823 76.7571C188.51 76.2741 188.354 75.6728 188.354 74.9531C188.354 74.3471 188.465 73.8381 188.688 73.4261C188.911 73.0142 189.214 72.6828 189.597 72.4318C189.981 72.1809 190.416 71.9915 190.904 71.8636C191.396 71.7358 191.912 71.6458 192.452 71.5938C193.087 71.5275 193.598 71.4659 193.986 71.4091C194.375 71.3475 194.656 71.2576 194.831 71.1392C195.007 71.0208 195.094 70.8456 195.094 70.6136V70.571C195.094 70.1212 194.952 69.7732 194.668 69.527C194.389 69.2808 193.991 69.1577 193.475 69.1577C192.93 69.1577 192.497 69.2784 192.175 69.5199C191.853 69.7566 191.64 70.0549 191.536 70.4148L188.738 70.1875C188.88 69.5246 189.159 68.9517 189.576 68.4688C189.992 67.9811 190.53 67.607 191.188 67.3466C191.851 67.0814 192.618 66.9489 193.489 66.9489C194.095 66.9489 194.675 67.0199 195.229 67.1619C195.788 67.304 196.283 67.5241 196.714 67.8224C197.149 68.1207 197.492 68.5043 197.743 68.973C197.994 69.437 198.12 69.9934 198.12 70.642V78H195.251V76.4872H195.165C194.99 76.8281 194.756 77.1288 194.462 77.3892C194.169 77.6449 193.816 77.8461 193.404 77.9929C192.992 78.1349 192.516 78.206 191.976 78.206ZM192.843 76.1179C193.288 76.1179 193.681 76.0303 194.022 75.8551C194.363 75.6752 194.63 75.4337 194.824 75.1307C195.019 74.8277 195.116 74.4844 195.116 74.1009V72.9432C195.021 73.0047 194.891 73.0616 194.725 73.1136C194.564 73.161 194.382 73.206 194.178 73.2486C193.974 73.2865 193.771 73.322 193.567 73.3551C193.364 73.3835 193.179 73.4096 193.013 73.4332C192.658 73.4853 192.348 73.5682 192.083 73.6818C191.818 73.7955 191.612 73.9493 191.465 74.1435C191.318 74.3329 191.245 74.5696 191.245 74.8537C191.245 75.2656 191.394 75.5805 191.692 75.7983C191.995 76.0114 192.379 76.1179 192.843 76.1179ZM200.467 78V67.0909H203.4V68.9943H203.514C203.713 68.3172 204.047 67.8059 204.515 67.4602C204.984 67.1098 205.524 66.9347 206.135 66.9347C206.286 66.9347 206.45 66.9441 206.625 66.9631C206.8 66.982 206.954 67.008 207.086 67.0412V69.7259C206.944 69.6832 206.748 69.6454 206.497 69.6122C206.246 69.5791 206.016 69.5625 205.808 69.5625C205.363 69.5625 204.965 69.6596 204.615 69.8537C204.269 70.0431 203.995 70.3082 203.791 70.6491C203.592 70.9901 203.493 71.383 203.493 71.8281V78H200.467ZM211.449 78.206C210.753 78.206 210.133 78.0852 209.588 77.8438C209.044 77.5975 208.613 77.2353 208.296 76.7571C207.983 76.2741 207.827 75.6728 207.827 74.9531C207.827 74.3471 207.938 73.8381 208.161 73.4261C208.383 73.0142 208.686 72.6828 209.07 72.4318C209.453 72.1809 209.889 71.9915 210.377 71.8636C210.869 71.7358 211.385 71.6458 211.925 71.5938C212.559 71.5275 213.071 71.4659 213.459 71.4091C213.847 71.3475 214.129 71.2576 214.304 71.1392C214.479 71.0208 214.567 70.8456 214.567 70.6136V70.571C214.567 70.1212 214.425 69.7732 214.141 69.527C213.861 69.2808 213.464 69.1577 212.948 69.1577C212.403 69.1577 211.97 69.2784 211.648 69.5199C211.326 69.7566 211.113 70.0549 211.009 70.4148L208.21 70.1875C208.352 69.5246 208.632 68.9517 209.048 68.4688C209.465 67.9811 210.003 67.607 210.661 67.3466C211.324 67.0814 212.091 66.9489 212.962 66.9489C213.568 66.9489 214.148 67.0199 214.702 67.1619C215.261 67.304 215.755 67.5241 216.186 67.8224C216.622 68.1207 216.965 68.5043 217.216 68.973C217.467 69.437 217.593 69.9934 217.593 70.642V78H214.723V76.4872H214.638C214.463 76.8281 214.228 77.1288 213.935 77.3892C213.641 77.6449 213.289 77.8461 212.877 77.9929C212.465 78.1349 211.989 78.206 211.449 78.206ZM212.316 76.1179C212.761 76.1179 213.154 76.0303 213.494 75.8551C213.835 75.6752 214.103 75.4337 214.297 75.1307C214.491 74.8277 214.588 74.4844 214.588 74.1009V72.9432C214.494 73.0047 214.363 73.0616 214.198 73.1136C214.037 73.161 213.854 73.206 213.651 73.2486C213.447 73.2865 213.244 73.322 213.04 73.3551C212.836 73.3835 212.652 73.4096 212.486 73.4332C212.131 73.4853 211.821 73.5682 211.556 73.6818C211.29 73.7955 211.084 73.9493 210.938 74.1435C210.791 74.3329 210.718 74.5696 210.718 74.8537C210.718 75.2656 210.867 75.5805 211.165 75.7983C211.468 76.0114 211.852 76.1179 212.316 76.1179ZM229.54 78.2131C228.418 78.2131 227.452 77.9858 226.643 77.5312C225.838 77.072 225.217 76.4233 224.782 75.5852C224.346 74.7424 224.128 73.7457 224.128 72.5952C224.128 71.473 224.346 70.4882 224.782 69.6406C225.217 68.7931 225.831 68.1326 226.621 67.6591C227.417 67.1856 228.349 66.9489 229.42 66.9489C230.139 66.9489 230.809 67.0649 231.43 67.2969C232.055 67.5241 232.599 67.8674 233.063 68.3267C233.532 68.786 233.896 69.3636 234.157 70.0597C234.417 70.7509 234.547 71.5606 234.547 72.4886V73.3196H225.336V71.4446H231.699C231.699 71.009 231.605 70.6231 231.415 70.2869C231.226 69.9508 230.963 69.688 230.627 69.4986C230.296 69.3045 229.91 69.2074 229.469 69.2074C229.01 69.2074 228.603 69.3139 228.248 69.527C227.897 69.7353 227.623 70.017 227.424 70.3722C227.225 70.7225 227.123 71.1132 227.118 71.544V73.3267C227.118 73.8665 227.218 74.3329 227.417 74.7259C227.62 75.1188 227.907 75.4219 228.276 75.6349C228.645 75.848 229.083 75.9545 229.59 75.9545C229.926 75.9545 230.234 75.9072 230.513 75.8125C230.793 75.7178 231.032 75.5758 231.231 75.3864C231.43 75.197 231.581 74.965 231.685 74.6903L234.483 74.875C234.341 75.5473 234.05 76.1345 233.61 76.6364C233.174 77.1335 232.611 77.5218 231.92 77.8011C231.233 78.0758 230.44 78.2131 229.54 78.2131ZM245.599 70.2017L242.829 70.3722C242.781 70.1354 242.68 69.9223 242.523 69.733C242.367 69.5388 242.161 69.3849 241.905 69.2713C241.654 69.1529 241.354 69.0938 241.003 69.0938C240.535 69.0938 240.139 69.1932 239.817 69.392C239.495 69.5862 239.334 69.8466 239.334 70.1733C239.334 70.4337 239.439 70.6539 239.647 70.8338C239.855 71.0137 240.213 71.1581 240.719 71.267L242.694 71.6648C243.754 71.8826 244.545 72.233 245.066 72.7159C245.587 73.1989 245.847 73.8333 245.847 74.6193C245.847 75.3343 245.636 75.9616 245.215 76.5014C244.798 77.0412 244.225 77.4626 243.496 77.7656C242.772 78.0639 241.936 78.2131 240.989 78.2131C239.545 78.2131 238.394 77.9124 237.537 77.3111C236.685 76.705 236.186 75.8812 236.039 74.8395L239.015 74.6832C239.105 75.1236 239.323 75.4598 239.668 75.6918C240.014 75.919 240.456 76.0327 240.996 76.0327C241.527 76.0327 241.953 75.9309 242.275 75.7273C242.601 75.5189 242.767 75.2514 242.772 74.9247C242.767 74.6501 242.651 74.4252 242.424 74.25C242.197 74.0701 241.846 73.9328 241.373 73.8381L239.483 73.4616C238.418 73.2486 237.625 72.8793 237.104 72.3537C236.588 71.8281 236.33 71.1581 236.33 70.3438C236.33 69.643 236.519 69.0393 236.898 68.5327C237.282 68.026 237.819 67.6354 238.51 67.3608C239.206 67.0862 240.021 66.9489 240.954 66.9489C242.331 66.9489 243.416 67.2401 244.206 67.8224C245.002 68.4048 245.466 69.1979 245.599 70.2017ZM256.829 70.2017L254.059 70.3722C254.012 70.1354 253.91 69.9223 253.754 69.733C253.597 69.5388 253.392 69.3849 253.136 69.2713C252.885 69.1529 252.584 69.0938 252.234 69.0938C251.765 69.0938 251.37 69.1932 251.048 69.392C250.726 69.5862 250.565 69.8466 250.565 70.1733C250.565 70.4337 250.669 70.6539 250.877 70.8338C251.086 71.0137 251.443 71.1581 251.95 71.267L253.924 71.6648C254.985 71.8826 255.776 72.233 256.296 72.7159C256.817 73.1989 257.078 73.8333 257.078 74.6193C257.078 75.3343 256.867 75.9616 256.445 76.5014C256.029 77.0412 255.456 77.4626 254.727 77.7656C254.002 78.0639 253.167 78.2131 252.22 78.2131C250.776 78.2131 249.625 77.9124 248.768 77.3111C247.916 76.705 247.416 75.8812 247.269 74.8395L250.245 74.6832C250.335 75.1236 250.553 75.4598 250.899 75.6918C251.244 75.919 251.687 76.0327 252.227 76.0327C252.757 76.0327 253.183 75.9309 253.505 75.7273C253.832 75.5189 253.998 75.2514 254.002 74.9247C253.998 74.6501 253.882 74.4252 253.654 74.25C253.427 74.0701 253.077 73.9328 252.603 73.8381L250.714 73.4616C249.649 73.2486 248.856 72.8793 248.335 72.3537C247.819 71.8281 247.561 71.1581 247.561 70.3438C247.561 69.643 247.75 69.0393 248.129 68.5327C248.512 68.026 249.05 67.6354 249.741 67.3608C250.437 67.0862 251.251 66.9489 252.184 66.9489C253.562 66.9489 254.646 67.2401 255.437 67.8224C256.232 68.4048 256.696 69.1979 256.829 70.2017ZM262.094 78.206C261.398 78.206 260.777 78.0852 260.233 77.8438C259.688 77.5975 259.257 77.2353 258.94 76.7571C258.628 76.2741 258.471 75.6728 258.471 74.9531C258.471 74.3471 258.583 73.8381 258.805 73.4261C259.028 73.0142 259.331 72.6828 259.714 72.4318C260.098 72.1809 260.533 71.9915 261.021 71.8636C261.514 71.7358 262.03 71.6458 262.569 71.5938C263.204 71.5275 263.715 71.4659 264.104 71.4091C264.492 71.3475 264.773 71.2576 264.949 71.1392C265.124 71.0208 265.211 70.8456 265.211 70.6136V70.571C265.211 70.1212 265.069 69.7732 264.785 69.527C264.506 69.2808 264.108 69.1577 263.592 69.1577C263.048 69.1577 262.614 69.2784 262.292 69.5199C261.97 69.7566 261.757 70.0549 261.653 70.4148L258.855 70.1875C258.997 69.5246 259.276 68.9517 259.693 68.4688C260.11 67.9811 260.647 67.607 261.305 67.3466C261.968 67.0814 262.735 66.9489 263.606 66.9489C264.212 66.9489 264.792 67.0199 265.346 67.1619C265.905 67.304 266.4 67.5241 266.831 67.8224C267.266 68.1207 267.61 68.5043 267.861 68.973C268.112 69.437 268.237 69.9934 268.237 70.642V78H265.368V76.4872H265.282C265.107 76.8281 264.873 77.1288 264.579 77.3892C264.286 77.6449 263.933 77.8461 263.521 77.9929C263.109 78.1349 262.633 78.206 262.094 78.206ZM262.96 76.1179C263.405 76.1179 263.798 76.0303 264.139 75.8551C264.48 75.6752 264.747 75.4337 264.942 75.1307C265.136 74.8277 265.233 74.4844 265.233 74.1009V72.9432C265.138 73.0047 265.008 73.0616 264.842 73.1136C264.681 73.161 264.499 73.206 264.295 73.2486C264.092 73.2865 263.888 73.322 263.684 73.3551C263.481 73.3835 263.296 73.4096 263.131 73.4332C262.775 73.4853 262.465 73.5682 262.2 73.6818C261.935 73.7955 261.729 73.9493 261.582 74.1435C261.435 74.3329 261.362 74.5696 261.362 74.8537C261.362 75.2656 261.511 75.5805 261.809 75.7983C262.113 76.0114 262.496 76.1179 262.96 76.1179ZM275.213 67.0909H278.239V78.5398C278.239 79.3826 278.073 80.0644 277.742 80.5852C277.41 81.1061 276.934 81.4872 276.314 81.7287C275.699 81.9702 274.962 82.0909 274.105 82.0909C274.001 82.0909 273.902 82.0885 273.807 82.0838C273.708 82.0838 273.603 82.0814 273.494 82.0767V79.7116C273.575 79.7164 273.646 79.7188 273.708 79.7188C273.764 79.7235 273.826 79.7259 273.892 79.7259C274.38 79.7259 274.721 79.6217 274.915 79.4134C275.114 79.2098 275.213 78.902 275.213 78.4901V67.0909ZM276.719 65.6847C276.274 65.6847 275.89 65.5355 275.568 65.2372C275.246 64.9342 275.085 64.572 275.085 64.1506C275.085 63.7339 275.246 63.3764 275.568 63.0781C275.89 62.7751 276.274 62.6236 276.719 62.6236C277.173 62.6236 277.559 62.7751 277.877 63.0781C278.199 63.3764 278.36 63.7339 278.36 64.1506C278.36 64.572 278.199 64.9342 277.877 65.2372C277.559 65.5355 277.173 65.6847 276.719 65.6847ZM285.591 78.2131C284.488 78.2131 283.534 77.9787 282.729 77.5099C281.929 77.0365 281.311 76.3783 280.876 75.5355C280.44 74.688 280.222 73.7055 280.222 72.5881C280.222 71.4612 280.44 70.4763 280.876 69.6335C281.311 68.786 281.929 68.1278 282.729 67.6591C283.534 67.1856 284.488 66.9489 285.591 66.9489C286.695 66.9489 287.646 67.1856 288.447 67.6591C289.251 68.1278 289.872 68.786 290.307 69.6335C290.743 70.4763 290.961 71.4612 290.961 72.5881C290.961 73.7055 290.743 74.688 290.307 75.5355C289.872 76.3783 289.251 77.0365 288.447 77.5099C287.646 77.9787 286.695 78.2131 285.591 78.2131ZM285.606 75.8693C286.108 75.8693 286.527 75.7273 286.863 75.4432C287.199 75.1544 287.452 74.7614 287.623 74.2642C287.798 73.767 287.885 73.2012 287.885 72.5668C287.885 71.9323 287.798 71.3665 287.623 70.8693C287.452 70.3722 287.199 69.9792 286.863 69.6903C286.527 69.4015 286.108 69.2571 285.606 69.2571C285.099 69.2571 284.673 69.4015 284.327 69.6903C283.986 69.9792 283.728 70.3722 283.553 70.8693C283.383 71.3665 283.297 71.9323 283.297 72.5668C283.297 73.2012 283.383 73.767 283.553 74.2642C283.728 74.7614 283.986 75.1544 284.327 75.4432C284.673 75.7273 285.099 75.8693 285.606 75.8693ZM292.928 78V67.0909H295.861V68.9943H295.975C296.174 68.3172 296.508 67.8059 296.976 67.4602C297.445 67.1098 297.985 66.9347 298.596 66.9347C298.747 66.9347 298.911 66.9441 299.086 66.9631C299.261 66.982 299.415 67.008 299.547 67.0412V69.7259C299.405 69.6832 299.209 69.6454 298.958 69.6122C298.707 69.5791 298.477 69.5625 298.269 69.5625C297.824 69.5625 297.426 69.6596 297.076 69.8537C296.73 70.0431 296.456 70.3082 296.252 70.6491C296.053 70.9901 295.954 71.383 295.954 71.8281V78H292.928ZM304.137 71.6932V78H301.112V67.0909H303.995V69.0156H304.123C304.365 68.3812 304.769 67.8793 305.338 67.5099C305.906 67.1359 306.595 66.9489 307.404 66.9489C308.162 66.9489 308.822 67.1146 309.386 67.446C309.949 67.7775 310.387 68.2509 310.7 68.8665C311.012 69.4773 311.169 70.2064 311.169 71.054V78H308.143V71.5938C308.148 70.9261 307.977 70.4053 307.632 70.0312C307.286 69.6525 306.81 69.4631 306.204 69.4631C305.797 69.4631 305.437 69.5507 305.124 69.7259C304.817 69.901 304.575 70.1567 304.4 70.4929C304.23 70.8243 304.142 71.2244 304.137 71.6932ZM316.664 78.206C315.968 78.206 315.348 78.0852 314.803 77.8438C314.259 77.5975 313.828 77.2353 313.51 76.7571C313.198 76.2741 313.042 75.6728 313.042 74.9531C313.042 74.3471 313.153 73.8381 313.376 73.4261C313.598 73.0142 313.901 72.6828 314.285 72.4318C314.668 72.1809 315.104 71.9915 315.591 71.8636C316.084 71.7358 316.6 71.6458 317.14 71.5938C317.774 71.5275 318.286 71.4659 318.674 71.4091C319.062 71.3475 319.344 71.2576 319.519 71.1392C319.694 71.0208 319.782 70.8456 319.782 70.6136V70.571C319.782 70.1212 319.64 69.7732 319.356 69.527C319.076 69.2808 318.679 69.1577 318.162 69.1577C317.618 69.1577 317.185 69.2784 316.863 69.5199C316.541 69.7566 316.328 70.0549 316.224 70.4148L313.425 70.1875C313.567 69.5246 313.847 68.9517 314.263 68.4688C314.68 67.9811 315.217 67.607 315.876 67.3466C316.538 67.0814 317.305 66.9489 318.177 66.9489C318.783 66.9489 319.363 67.0199 319.917 67.1619C320.475 67.304 320.97 67.5241 321.401 67.8224C321.837 68.1207 322.18 68.5043 322.431 68.973C322.682 69.437 322.807 69.9934 322.807 70.642V78H319.938V76.4872H319.853C319.678 76.8281 319.443 77.1288 319.15 77.3892C318.856 77.6449 318.503 77.8461 318.091 77.9929C317.68 78.1349 317.204 78.206 316.664 78.206ZM317.53 76.1179C317.975 76.1179 318.368 76.0303 318.709 75.8551C319.05 75.6752 319.318 75.4337 319.512 75.1307C319.706 74.8277 319.803 74.4844 319.803 74.1009V72.9432C319.708 73.0047 319.578 73.0616 319.412 73.1136C319.251 73.161 319.069 73.206 318.866 73.2486C318.662 73.2865 318.458 73.322 318.255 73.3551C318.051 73.3835 317.867 73.4096 317.701 73.4332C317.346 73.4853 317.036 73.5682 316.77 73.6818C316.505 73.7955 316.299 73.9493 316.153 74.1435C316.006 74.3329 315.932 74.5696 315.932 74.8537C315.932 75.2656 316.081 75.5805 316.38 75.7983C316.683 76.0114 317.066 76.1179 317.53 76.1179ZM329.175 78.1776C328.346 78.1776 327.595 77.9645 326.923 77.5384C326.256 77.1075 325.725 76.4754 325.332 75.642C324.944 74.804 324.75 73.7765 324.75 72.5597C324.75 71.3097 324.951 70.2704 325.354 69.4418C325.756 68.6084 326.291 67.9858 326.959 67.5739C327.631 67.1572 328.367 66.9489 329.167 66.9489C329.778 66.9489 330.287 67.053 330.694 67.2614C331.106 67.465 331.438 67.7206 331.689 68.0284C331.944 68.3314 332.139 68.6297 332.271 68.9233H332.363V63.4545H335.382V78H332.399V76.2528H332.271C332.129 76.5559 331.928 76.8565 331.667 77.1548C331.412 77.4484 331.078 77.6922 330.666 77.8864C330.259 78.0805 329.762 78.1776 329.175 78.1776ZM330.133 75.7699C330.621 75.7699 331.033 75.6373 331.369 75.3722C331.71 75.1023 331.97 74.7259 332.15 74.2429C332.335 73.7599 332.427 73.1941 332.427 72.5455C332.427 71.8968 332.337 71.3333 332.157 70.8551C331.978 70.3769 331.717 70.0076 331.376 69.7472C331.035 69.4867 330.621 69.3565 330.133 69.3565C329.636 69.3565 329.217 69.4915 328.876 69.7614C328.535 70.0312 328.277 70.4053 328.102 70.8835C327.927 71.3617 327.839 71.9157 327.839 72.5455C327.839 73.1799 327.927 73.741 328.102 74.2287C328.282 74.7116 328.54 75.0904 328.876 75.3651C329.217 75.6349 329.636 75.7699 330.133 75.7699ZM340.98 78.206C340.284 78.206 339.664 78.0852 339.119 77.8438C338.575 77.5975 338.144 77.2353 337.827 76.7571C337.514 76.2741 337.358 75.6728 337.358 74.9531C337.358 74.3471 337.469 73.8381 337.692 73.4261C337.914 73.0142 338.218 72.6828 338.601 72.4318C338.985 72.1809 339.42 71.9915 339.908 71.8636C340.4 71.7358 340.916 71.6458 341.456 71.5938C342.091 71.5275 342.602 71.4659 342.99 71.4091C343.378 71.3475 343.66 71.2576 343.835 71.1392C344.011 71.0208 344.098 70.8456 344.098 70.6136V70.571C344.098 70.1212 343.956 69.7732 343.672 69.527C343.393 69.2808 342.995 69.1577 342.479 69.1577C341.934 69.1577 341.501 69.2784 341.179 69.5199C340.857 69.7566 340.644 70.0549 340.54 70.4148L337.742 70.1875C337.884 69.5246 338.163 68.9517 338.58 68.4688C338.996 67.9811 339.534 67.607 340.192 67.3466C340.855 67.0814 341.622 66.9489 342.493 66.9489C343.099 66.9489 343.679 67.0199 344.233 67.1619C344.792 67.304 345.287 67.5241 345.718 67.8224C346.153 68.1207 346.496 68.5043 346.747 68.973C346.998 69.437 347.124 69.9934 347.124 70.642V78H344.254V76.4872H344.169C343.994 76.8281 343.76 77.1288 343.466 77.3892C343.173 77.6449 342.82 77.8461 342.408 77.9929C341.996 78.1349 341.52 78.206 340.98 78.206ZM341.847 76.1179C342.292 76.1179 342.685 76.0303 343.026 75.8551C343.367 75.6752 343.634 75.4337 343.828 75.1307C344.022 74.8277 344.119 74.4844 344.119 74.1009V72.9432C344.025 73.0047 343.895 73.0616 343.729 73.1136C343.568 73.161 343.386 73.206 343.182 73.2486C342.978 73.2865 342.775 73.322 342.571 73.3551C342.368 73.3835 342.183 73.4096 342.017 73.4332C341.662 73.4853 341.352 73.5682 341.087 73.6818C340.822 73.7955 340.616 73.9493 340.469 74.1435C340.322 74.3329 340.249 74.5696 340.249 74.8537C340.249 75.2656 340.398 75.5805 340.696 75.7983C340.999 76.0114 341.383 76.1179 341.847 76.1179ZM352.07 73.6392V73.3977C352.075 72.5691 352.149 71.9086 352.291 71.4162C352.437 70.9238 352.651 70.526 352.93 70.223C353.209 69.92 353.545 69.6454 353.938 69.3991C354.232 69.2098 354.495 69.0133 354.727 68.8097C354.959 68.6061 355.143 68.3812 355.281 68.1349C355.418 67.884 355.487 67.6046 355.487 67.2969C355.487 66.9702 355.409 66.6837 355.252 66.4375C355.096 66.1913 354.885 66.0019 354.62 65.8693C354.36 65.7367 354.071 65.6705 353.754 65.6705C353.446 65.6705 353.155 65.7391 352.88 65.8764C352.606 66.009 352.381 66.2079 352.205 66.473C352.03 66.7334 351.936 67.0578 351.921 67.446H349.024C349.047 66.4991 349.275 65.7178 349.705 65.1023C350.136 64.482 350.707 64.0204 351.417 63.7173C352.127 63.4096 352.911 63.2557 353.768 63.2557C354.71 63.2557 355.544 63.4119 356.268 63.7244C356.992 64.0322 357.561 64.4796 357.972 65.0668C358.384 65.6539 358.59 66.3617 358.59 67.1903C358.59 67.7443 358.498 68.2367 358.313 68.6676C358.133 69.0937 357.88 69.4725 357.553 69.804C357.227 70.1307 356.841 70.4266 356.396 70.6918C356.022 70.9143 355.714 71.1463 355.472 71.3878C355.236 71.6293 355.058 71.9086 354.94 72.2259C354.826 72.5431 354.767 72.9337 354.762 73.3977V73.6392H352.07ZM353.477 78.1847C353.003 78.1847 352.598 78.0189 352.262 77.6875C351.931 77.3513 351.767 76.9489 351.772 76.4801C351.767 76.0161 351.931 75.6184 352.262 75.2869C352.598 74.9555 353.003 74.7898 353.477 74.7898C353.927 74.7898 354.322 74.9555 354.663 75.2869C355.004 75.6184 355.177 76.0161 355.181 76.4801C355.177 76.7926 355.094 77.0791 354.933 77.3395C354.776 77.5952 354.57 77.8011 354.315 77.9574C354.059 78.1089 353.78 78.1847 353.477 78.1847Z" fill="white"/>
<path d="M22.3778 52V17.0909H29.7585V45.9148H44.7244V52H22.3778ZM80.3324 34.5455C80.3324 38.3523 79.6108 41.5909 78.1676 44.2614C76.7358 46.9318 74.7813 48.9716 72.304 50.3807C69.8381 51.7784 67.0653 52.4773 63.9858 52.4773C60.8835 52.4773 58.0994 51.7727 55.6335 50.3636C53.1676 48.9545 51.2188 46.9148 49.7869 44.2443C48.3551 41.5739 47.6392 38.3409 47.6392 34.5455C47.6392 30.7386 48.3551 27.5 49.7869 24.8295C51.2188 22.1591 53.1676 20.125 55.6335 18.7273C58.0994 17.3182 60.8835 16.6136 63.9858 16.6136C67.0653 16.6136 69.8381 17.3182 72.304 18.7273C74.7813 20.125 76.7358 22.1591 78.1676 24.8295C79.6108 27.5 80.3324 30.7386 80.3324 34.5455ZM72.8494 34.5455C72.8494 32.0795 72.4801 30 71.7415 28.3068C71.0142 26.6136 69.9858 25.3295 68.6562 24.4545C67.3267 23.5795 65.7699 23.142 63.9858 23.142C62.2017 23.142 60.6449 23.5795 59.3153 24.4545C57.9858 25.3295 56.9517 26.6136 56.2131 28.3068C55.4858 30 55.1222 32.0795 55.1222 34.5455C55.1222 37.0114 55.4858 39.0909 56.2131 40.7841C56.9517 42.4773 57.9858 43.7614 59.3153 44.6364C60.6449 45.5114 62.2017 45.9489 63.9858 45.9489C65.7699 45.9489 67.3267 45.5114 68.6562 44.6364C69.9858 43.7614 71.0142 42.4773 71.7415 40.7841C72.4801 39.0909 72.8494 37.0114 72.8494 34.5455ZM89.848 52H81.9389L93.9901 17.0909H103.501L115.536 52H107.626L98.8821 25.0682H98.6094L89.848 52ZM89.3537 38.2784H108.036V44.0398H89.3537V38.2784ZM132.112 52H119.737V17.0909H132.214C135.726 17.0909 138.749 17.7898 141.283 19.1875C143.817 20.5739 145.766 22.5682 147.129 25.1705C148.504 27.7727 149.192 30.8864 149.192 34.5114C149.192 38.1477 148.504 41.2727 147.129 43.8864C145.766 46.5 143.805 48.5057 141.249 49.9034C138.703 51.3011 135.658 52 132.112 52ZM127.118 45.6761H131.805C133.987 45.6761 135.822 45.2898 137.311 44.517C138.811 43.733 139.936 42.5227 140.686 40.8864C141.447 39.2386 141.828 37.1136 141.828 34.5114C141.828 31.9318 141.447 29.8239 140.686 28.1875C139.936 26.5511 138.817 25.3466 137.328 24.5739C135.839 23.8011 134.004 23.4148 131.822 23.4148H127.118V45.6761ZM162.04 17.0909V52H154.659V17.0909H162.04ZM197.311 17.0909V52H190.936L175.749 30.0284H175.493V52H168.112V17.0909H174.589L189.658 39.0455H189.964V17.0909H197.311ZM226.557 28.375C226.318 27.5455 225.983 26.8125 225.551 26.1761C225.119 25.5284 224.591 24.983 223.966 24.5398C223.352 24.0852 222.648 23.7386 221.852 23.5C221.068 23.2614 220.199 23.142 219.244 23.142C217.46 23.142 215.892 23.5852 214.54 24.4716C213.199 25.358 212.153 26.6477 211.403 28.3409C210.653 30.0227 210.278 32.0795 210.278 34.5114C210.278 36.9432 210.648 39.0114 211.386 40.7159C212.125 42.4205 213.17 43.7216 214.523 44.6193C215.875 45.5057 217.472 45.9489 219.312 45.9489C220.983 45.9489 222.409 45.6534 223.591 45.0625C224.784 44.4602 225.693 43.6136 226.318 42.5227C226.955 41.4318 227.273 40.142 227.273 38.6534L228.773 38.875H219.773V33.3182H234.381V37.7159C234.381 40.7841 233.733 43.4205 232.438 45.625C231.142 47.8182 229.358 49.5114 227.085 50.7045C224.812 51.8864 222.21 52.4773 219.278 52.4773C216.006 52.4773 213.131 51.7557 210.653 50.3125C208.176 48.858 206.244 46.7955 204.858 44.125C203.483 41.4432 202.795 38.2614 202.795 34.5795C202.795 31.75 203.205 29.2273 204.023 27.0114C204.852 24.7841 206.011 22.8977 207.5 21.3523C208.989 19.8068 210.722 18.6307 212.699 17.8239C214.676 17.017 216.818 16.6136 219.125 16.6136C221.102 16.6136 222.943 16.9034 224.648 17.483C226.352 18.0511 227.864 18.858 229.182 19.9034C230.511 20.9489 231.597 22.1932 232.438 23.6364C233.278 25.0682 233.818 26.6477 234.057 28.375H226.557ZM274.182 28.375C273.943 27.5455 273.608 26.8125 273.176 26.1761C272.744 25.5284 272.216 24.983 271.591 24.5398C270.977 24.0852 270.273 23.7386 269.477 23.5C268.693 23.2614 267.824 23.142 266.869 23.142C265.085 23.142 263.517 23.5852 262.165 24.4716C260.824 25.358 259.778 26.6477 259.028 28.3409C258.278 30.0227 257.903 32.0795 257.903 34.5114C257.903 36.9432 258.273 39.0114 259.011 40.7159C259.75 42.4205 260.795 43.7216 262.148 44.6193C263.5 45.5057 265.097 45.9489 266.938 45.9489C268.608 45.9489 270.034 45.6534 271.216 45.0625C272.409 44.4602 273.318 43.6136 273.943 42.5227C274.58 41.4318 274.898 40.142 274.898 38.6534L276.398 38.875H267.398V33.3182H282.006V37.7159C282.006 40.7841 281.358 43.4205 280.062 45.625C278.767 47.8182 276.983 49.5114 274.71 50.7045C272.438 51.8864 269.835 52.4773 266.903 52.4773C263.631 52.4773 260.756 51.7557 258.278 50.3125C255.801 48.858 253.869 46.7955 252.483 44.125C251.108 41.4432 250.42 38.2614 250.42 34.5795C250.42 31.75 250.83 29.2273 251.648 27.0114C252.477 24.7841 253.636 22.8977 255.125 21.3523C256.614 19.8068 258.347 18.6307 260.324 17.8239C262.301 17.017 264.443 16.6136 266.75 16.6136C268.727 16.6136 270.568 16.9034 272.273 17.483C273.977 18.0511 275.489 18.858 276.807 19.9034C278.136 20.9489 279.222 22.1932 280.062 23.6364C280.903 25.0682 281.443 26.6477 281.682 28.375H274.182ZM292.489 52H284.58L296.631 17.0909H306.142L318.176 52H310.267L301.523 25.0682H301.25L292.489 52ZM291.994 38.2784H310.676V44.0398H291.994V38.2784ZM322.378 17.0909H331.48L341.094 40.5455H341.503L351.116 17.0909H360.219V52H353.06V29.2784H352.77L343.736 51.8295H338.861L329.827 29.1932H329.537V52H322.378V17.0909ZM366.3 52V17.0909H389.822V23.1761H373.68V31.4943H388.612V37.5795H373.68V45.9148H389.891V52H366.3Z" fill="#C71717"/>
<path d="M25.3778 49V14.0909H32.7585V42.9148H47.7244V49H25.3778ZM83.3324 31.5455C83.3324 35.3523 82.6108 38.5909 81.1676 41.2614C79.7358 43.9318 77.7813 45.9716 75.304 47.3807C72.8381 48.7784 70.0653 49.4773 66.9858 49.4773C63.8835 49.4773 61.0994 48.7727 58.6335 47.3636C56.1676 45.9545 54.2188 43.9148 52.7869 41.2443C51.3551 38.5739 50.6392 35.3409 50.6392 31.5455C50.6392 27.7386 51.3551 24.5 52.7869 21.8295C54.2188 19.1591 56.1676 17.125 58.6335 15.7273C61.0994 14.3182 63.8835 13.6136 66.9858 13.6136C70.0653 13.6136 72.8381 14.3182 75.304 15.7273C77.7813 17.125 79.7358 19.1591 81.1676 21.8295C82.6108 24.5 83.3324 27.7386 83.3324 31.5455ZM75.8494 31.5455C75.8494 29.0795 75.4801 27 74.7415 25.3068C74.0142 23.6136 72.9858 22.3295 71.6562 21.4545C70.3267 20.5795 68.7699 20.142 66.9858 20.142C65.2017 20.142 63.6449 20.5795 62.3153 21.4545C60.9858 22.3295 59.9517 23.6136 59.2131 25.3068C58.4858 27 58.1222 29.0795 58.1222 31.5455C58.1222 34.0114 58.4858 36.0909 59.2131 37.7841C59.9517 39.4773 60.9858 40.7614 62.3153 41.6364C63.6449 42.5114 65.2017 42.9489 66.9858 42.9489C68.7699 42.9489 70.3267 42.5114 71.6562 41.6364C72.9858 40.7614 74.0142 39.4773 74.7415 37.7841C75.4801 36.0909 75.8494 34.0114 75.8494 31.5455ZM92.848 49H84.9389L96.9901 14.0909H106.501L118.536 49H110.626L101.882 22.0682H101.609L92.848 49ZM92.3537 35.2784H111.036V41.0398H92.3537V35.2784ZM135.112 49H122.737V14.0909H135.214C138.726 14.0909 141.749 14.7898 144.283 16.1875C146.817 17.5739 148.766 19.5682 150.129 22.1705C151.504 24.7727 152.192 27.8864 152.192 31.5114C152.192 35.1477 151.504 38.2727 150.129 40.8864C148.766 43.5 146.805 45.5057 144.249 46.9034C141.703 48.3011 138.658 49 135.112 49ZM130.118 42.6761H134.805C136.987 42.6761 138.822 42.2898 140.311 41.517C141.811 40.733 142.936 39.5227 143.686 37.8864C144.447 36.2386 144.828 34.1136 144.828 31.5114C144.828 28.9318 144.447 26.8239 143.686 25.1875C142.936 23.5511 141.817 22.3466 140.328 21.5739C138.839 20.8011 137.004 20.4148 134.822 20.4148H130.118V42.6761ZM165.04 14.0909V49H157.659V14.0909H165.04ZM200.311 14.0909V49H193.936L178.749 27.0284H178.493V49H171.112V14.0909H177.589L192.658 36.0455H192.964V14.0909H200.311ZM229.557 25.375C229.318 24.5455 228.983 23.8125 228.551 23.1761C228.119 22.5284 227.591 21.983 226.966 21.5398C226.352 21.0852 225.648 20.7386 224.852 20.5C224.068 20.2614 223.199 20.142 222.244 20.142C220.46 20.142 218.892 20.5852 217.54 21.4716C216.199 22.358 215.153 23.6477 214.403 25.3409C213.653 27.0227 213.278 29.0795 213.278 31.5114C213.278 33.9432 213.648 36.0114 214.386 37.7159C215.125 39.4205 216.17 40.7216 217.523 41.6193C218.875 42.5057 220.472 42.9489 222.312 42.9489C223.983 42.9489 225.409 42.6534 226.591 42.0625C227.784 41.4602 228.693 40.6136 229.318 39.5227C229.955 38.4318 230.273 37.142 230.273 35.6534L231.773 35.875H222.773V30.3182H237.381V34.7159C237.381 37.7841 236.733 40.4205 235.438 42.625C234.142 44.8182 232.358 46.5114 230.085 47.7045C227.812 48.8864 225.21 49.4773 222.278 49.4773C219.006 49.4773 216.131 48.7557 213.653 47.3125C211.176 45.858 209.244 43.7955 207.858 41.125C206.483 38.4432 205.795 35.2614 205.795 31.5795C205.795 28.75 206.205 26.2273 207.023 24.0114C207.852 21.7841 209.011 19.8977 210.5 18.3523C211.989 16.8068 213.722 15.6307 215.699 14.8239C217.676 14.017 219.818 13.6136 222.125 13.6136C224.102 13.6136 225.943 13.9034 227.648 14.483C229.352 15.0511 230.864 15.858 232.182 16.9034C233.511 17.9489 234.597 19.1932 235.438 20.6364C236.278 22.0682 236.818 23.6477 237.057 25.375H229.557ZM277.182 25.375C276.943 24.5455 276.608 23.8125 276.176 23.1761C275.744 22.5284 275.216 21.983 274.591 21.5398C273.977 21.0852 273.273 20.7386 272.477 20.5C271.693 20.2614 270.824 20.142 269.869 20.142C268.085 20.142 266.517 20.5852 265.165 21.4716C263.824 22.358 262.778 23.6477 262.028 25.3409C261.278 27.0227 260.903 29.0795 260.903 31.5114C260.903 33.9432 261.273 36.0114 262.011 37.7159C262.75 39.4205 263.795 40.7216 265.148 41.6193C266.5 42.5057 268.097 42.9489 269.938 42.9489C271.608 42.9489 273.034 42.6534 274.216 42.0625C275.409 41.4602 276.318 40.6136 276.943 39.5227C277.58 38.4318 277.898 37.142 277.898 35.6534L279.398 35.875H270.398V30.3182H285.006V34.7159C285.006 37.7841 284.358 40.4205 283.062 42.625C281.767 44.8182 279.983 46.5114 277.71 47.7045C275.438 48.8864 272.835 49.4773 269.903 49.4773C266.631 49.4773 263.756 48.7557 261.278 47.3125C258.801 45.858 256.869 43.7955 255.483 41.125C254.108 38.4432 253.42 35.2614 253.42 31.5795C253.42 28.75 253.83 26.2273 254.648 24.0114C255.477 21.7841 256.636 19.8977 258.125 18.3523C259.614 16.8068 261.347 15.6307 263.324 14.8239C265.301 14.017 267.443 13.6136 269.75 13.6136C271.727 13.6136 273.568 13.9034 275.273 14.483C276.977 15.0511 278.489 15.858 279.807 16.9034C281.136 17.9489 282.222 19.1932 283.062 20.6364C283.903 22.0682 284.443 23.6477 284.682 25.375H277.182ZM295.489 49H287.58L299.631 14.0909H309.142L321.176 49H313.267L304.523 22.0682H304.25L295.489 49ZM294.994 35.2784H313.676V41.0398H294.994V35.2784ZM325.378 14.0909H334.48L344.094 37.5455H344.503L354.116 14.0909H363.219V49H356.06V26.2784H355.77L346.736 48.8295H341.861L332.827 26.1932H332.537V49H325.378V14.0909ZM369.3 49V14.0909H392.822V20.1761H376.68V28.4943H391.612V34.5795H376.68V42.9148H392.891V49H369.3Z" fill="white"/>
</svg>
