<svg width="21" height="21" viewBox="0 0 21 21" fill="none" xmlns="http://www.w3.org/2000/svg">
<g clip-path="url(#clip0_145_375)">
<path d="M17.0835 9.44336H3.0491C1.94182 9.44336 1.04419 10.2449 1.04419 11.2336V17.4993C1.04419 18.488 1.94182 19.2895 3.0491 19.2895H17.0835C18.1908 19.2895 19.0884 18.488 19.0884 17.4993V11.2336C19.0884 10.2449 18.1908 9.44336 17.0835 9.44336Z" stroke="#A2A2A2" stroke-width="2" stroke-linecap="round" stroke-linejoin="round"/>
<path d="M5.05402 9.44315V5.86273C5.05402 4.67575 5.58209 3.53738 6.52208 2.69806C7.46207 1.85873 8.73696 1.38721 10.0663 1.38721C11.3956 1.38721 12.6705 1.85873 13.6105 2.69806C14.5505 3.53738 15.0786 4.67575 15.0786 5.86273V9.44315" stroke="#A2A2A2" stroke-width="2" stroke-linecap="round" stroke-linejoin="round"/>
</g>
<defs>
<clipPath id="clip0_145_375">
<rect width="20.0491" height="19.6923" fill="white" transform="translate(0.041748 0.492188)"/>
</clipPath>
</defs>
</svg>
