<svg width="36" height="35" viewBox="0 0 36 35" fill="none" xmlns="http://www.w3.org/2000/svg">
<path d="M35.318 17.7423C35.318 27.0269 27.5923 34.5217 18.0217 34.5217C8.45104 34.5217 0.725342 27.0269 0.725342 17.7423C0.725342 8.4577 8.45104 0.962891 18.0217 0.962891C27.5923 0.962891 35.318 8.4577 35.318 17.7423Z" fill="#FFDD67"/>
<path d="M35.2027 7.22733C34.9144 5.71719 34.0496 4.4867 32.6082 4.09518C31.0515 3.70366 29.6678 4.26297 28.3418 5.60532C27.5923 3.59179 26.4392 2.08165 24.5942 1.29861C22.7493 0.515566 20.9044 1.07488 19.7513 2.47317C18.5405 3.92738 18.0793 6.22057 19.3477 9.18493C20.5584 11.9815 25.9203 17.5746 26.0933 17.7424C26.3239 17.6306 32.3199 13.995 33.7613 12.2052C35.2027 10.4714 35.4909 8.73748 35.2027 7.22733ZM16.292 2.47317C15.1389 1.07488 13.294 0.515566 11.449 1.29861C9.60408 2.08165 8.45099 3.59179 7.70149 5.60532C6.31778 4.3189 4.93407 3.70366 3.3774 4.15111C1.9937 4.54263 1.07122 5.77312 0.782952 7.28327C0.49468 8.73748 0.840606 10.5273 2.22431 12.2612C3.72333 13.995 9.71939 17.6306 9.95001 17.7424C10.123 17.5746 15.4848 11.9815 16.6956 9.18493C17.964 6.22057 17.5027 3.98331 16.292 2.47317Z" fill="#F46767"/>
<path d="M27.823 21.1546C27.823 20.7071 27.5347 20.1478 26.7852 19.98C24.7673 19.5885 21.8269 19.2529 18.0217 19.2529C14.2165 19.2529 11.2761 19.6444 9.25824 19.98C8.45108 20.1478 8.22046 20.7071 8.22046 21.1546C8.22046 25.2376 11.4491 29.3206 18.0217 29.3206C24.5943 29.2647 27.823 25.1817 27.823 21.1546Z" fill="#664E27"/>
<path d="M25.3439 21.2654C24.0755 21.0416 21.4234 20.7061 18.0218 20.7061C14.6202 20.7061 11.9681 21.0416 10.6997 21.2654C9.95018 21.3772 9.89252 21.6569 9.95018 22.1043C10.0078 22.3281 10.0078 22.6637 10.1231 22.9992C10.1808 23.3348 10.2961 23.5026 10.8727 23.4467C11.9681 23.3348 24.1332 23.3348 25.2286 23.4467C25.8051 23.5026 25.8628 23.3348 25.9781 22.9992C26.0358 22.6637 26.0934 22.384 26.1511 22.1043C26.1511 21.6569 26.0934 21.3772 25.3439 21.2654Z" fill="white"/>
</svg>
