<svg width="24" height="24" viewBox="0 0 24 24" fill="none" xmlns="http://www.w3.org/2000/svg">
<path d="M12 6.00001C11.45 6.00001 10.9793 5.80434 10.588 5.41301C10.1967 5.02167 10.0007 4.55067 10 4.00001C9.99933 3.44934 10.1953 2.97867 10.588 2.58801C10.9807 2.19734 11.4513 2.00134 12 2.00001C12.5487 1.99867 13.0197 2.19467 13.413 2.58801C13.8063 2.98134 14.002 3.45201 14 4.00001C13.998 4.54801 13.8023 5.01901 13.413 5.41301C13.0237 5.80701 12.5527 6.00267 12 6.00001ZM9 22V9.00001H3V7.00001H21V9.00001H15V22H13V16H11V22H9Z" fill="white"/>
</svg>
