<svg width="28" height="28" viewBox="0 0 28 28" fill="none" xmlns="http://www.w3.org/2000/svg">
<path d="M14.3333 5C15.571 5 16.758 5.49167 17.6332 6.36683C18.5083 7.242 19 8.42899 19 9.66667C19 10.9043 18.5083 12.0913 17.6332 12.9665C16.758 13.8417 15.571 14.3333 14.3333 14.3333C13.0957 14.3333 11.9087 13.8417 11.0335 12.9665C10.1583 12.0913 9.66667 10.9043 9.66667 9.66667C9.66667 8.42899 10.1583 7.242 11.0335 6.36683C11.9087 5.49167 13.0957 5 14.3333 5ZM14.3333 7.33333C13.7145 7.33333 13.121 7.57917 12.6834 8.01675C12.2458 8.45434 12 9.04783 12 9.66667C12 10.2855 12.2458 10.879 12.6834 11.3166C13.121 11.7542 13.7145 12 14.3333 12C14.9522 12 15.5457 11.7542 15.9832 11.3166C16.4208 10.879 16.6667 10.2855 16.6667 9.66667C16.6667 9.04783 16.4208 8.45434 15.9832 8.01675C15.5457 7.57917 14.9522 7.33333 14.3333 7.33333ZM14.3333 15.5C17.4483 15.5 23.6667 17.0517 23.6667 20.1667V23.6667H5V20.1667C5 17.0517 11.2183 15.5 14.3333 15.5ZM14.3333 17.7167C10.8683 17.7167 7.21667 19.42 7.21667 20.1667V21.45H21.45V20.1667C21.45 19.42 17.7983 17.7167 14.3333 17.7167Z" fill="white"/>
</svg>
