<svg width="30" height="30" viewBox="0 0 30 30" fill="none" xmlns="http://www.w3.org/2000/svg">
<path d="M16.0825 3.74994L27.99 24.3749C28.0997 24.565 28.1575 24.7805 28.1575 24.9999C28.1575 25.2194 28.0997 25.4349 27.99 25.6249C27.8803 25.815 27.7225 25.9728 27.5325 26.0825C27.3425 26.1922 27.1269 26.2499 26.9075 26.2499H3.0925C2.87308 26.2499 2.65753 26.1922 2.46751 26.0825C2.27749 25.9728 2.1197 25.815 2.00999 25.6249C1.90028 25.4349 1.84253 25.2194 1.84253 24.9999C1.84253 24.7805 1.90029 24.565 2.01 24.3749L13.9175 3.74994C14.0272 3.55994 14.185 3.40215 14.375 3.29245C14.565 3.18275 14.7806 3.125 15 3.125C15.2194 3.125 15.435 3.18275 15.625 3.29245C15.815 3.40215 15.9728 3.55994 16.0825 3.74994ZM5.2575 23.7499H24.7425L15 6.87494L5.2575 23.7499ZM13.75 19.9999H16.25V22.4999H13.75V19.9999ZM13.75 11.2499H16.25V17.4999H13.75V11.2499Z" fill="#D81616" fill-opacity="0.8"/>
</svg>
