<svg width="16" height="16" viewBox="0 0 16 16" fill="none" xmlns="http://www.w3.org/2000/svg">
<path d="M11.0666 3.88C10.611 3.35968 10.3599 2.6916 10.36 2H8.29998V10.2667C8.28442 10.7141 8.09566 11.1381 7.77352 11.449C7.45138 11.7599 7.02105 11.9336 6.57332 11.9333C5.62665 11.9333 4.83998 11.16 4.83998 10.2C4.83998 9.05333 5.94665 8.19333 7.08665 8.54667V6.44C4.78665 6.13333 2.77332 7.92 2.77332 10.2C2.77332 12.42 4.61332 14 6.56665 14C8.65998 14 10.36 12.3 10.36 10.2V6.00667C11.1953 6.60657 12.1982 6.92843 13.2266 6.92667V4.86667C13.2266 4.86667 11.9733 4.92667 11.0666 3.88Z" fill="white" fill-opacity="0.6"/>
</svg>
