<svg width="16" height="16" viewBox="0 0 16 16" fill="none" xmlns="http://www.w3.org/2000/svg">
<path d="M11.0667 3.88C10.6111 3.35968 10.3599 2.6916 10.36 2H8.3V10.2667C8.28444 10.7141 8.09568 11.1381 7.77354 11.449C7.45139 11.7599 7.02106 11.9336 6.57333 11.9333C5.62666 11.9333 4.84 11.16 4.84 10.2C4.84 9.05333 5.94666 8.19333 7.08666 8.54667V6.44C4.78666 6.13333 2.77333 7.92 2.77333 10.2C2.77333 12.42 4.61333 14 6.56666 14C8.66 14 10.36 12.3 10.36 10.2V6.00667C11.1953 6.60657 12.1982 6.92843 13.2267 6.92667V4.86667C13.2267 4.86667 11.9733 4.92667 11.0667 3.88Z" fill="white" fill-opacity="0.6"/>
</svg>
