<svg width="22" height="24" viewBox="0 0 22 24" fill="none" xmlns="http://www.w3.org/2000/svg">
<path d="M2 19.1991C2 17.8959 2.47411 16.646 3.31802 15.7244C4.16193 14.8029 5.30653 14.2852 6.5 14.2852H15.5C16.6935 14.2852 17.8381 14.8029 18.682 15.7244C19.5259 16.646 20 17.8959 20 19.1991C20 19.8508 19.7629 20.4757 19.341 20.9365C18.919 21.3972 18.3467 21.6561 17.75 21.6561H4.25C3.65326 21.6561 3.08097 21.3972 2.65901 20.9365C2.23705 20.4757 2 19.8508 2 19.1991Z" stroke="#CBCBCB" stroke-width="3" stroke-linejoin="round"/>
<path d="M11 9.37095C12.864 9.37095 14.375 7.72091 14.375 5.68547C14.375 3.65004 12.864 2 11 2C9.13604 2 7.625 3.65004 7.625 5.68547C7.625 7.72091 9.13604 9.37095 11 9.37095Z" stroke="#CBCBCB" stroke-width="3"/>
</svg>
